/* XPM */
static char *J_F_G361712524698[] = {
/* columns rows colors chars-per-pixel */
"32 32 13 1 ",
"  c #2A3134",
". c #400426",
"X c #011A51",
"o c #36034B",
"O c #0F0F65",
"+ c gray32",
"@ c #6C6C6C",
"# c #B6BF0A",
"$ c #DFA504",
"% c #E7F215",
"& c #F6FF55",
"* c #A0A0A0",
"= c #FEFFFF",
/* pixels */
"@@@@@@@@@@@@@@@@@@@@@@@@@@@@@@@@",
"@@@@@@@@@@@@@@@@@@@@@@@@@@@@@@@@",
"@@@@@@@@@@@@@@@@@@@@@@@@@@@@@@@@",
"@@@@@@@@@@@@@=======@@@@@@@@@@@@",
"@@@@@@@@@@@==@@@XX@@==@@@@@@@@@@",
"@@@@@@@@@==@@@@X@@@++@==@@@@@@@@",
"@@@@@@@@=@@@XXX@@@+@@@.@=@@@@@@@",
"@@@@@@@=@@@=@@@@++@@@.@@@=@@@@@@",
"@@@@@@=@@X=@@+++@@@@.@@@=@=@@@@@",
"@@@@@@=XX=@@+@@@@@@.@@@=@@=@@@@@",
"@@@@@=X@=@@+@######@@@*@@@O=@@@@",
"@@@@@=X=@@+@#%=%%%&#@*@@OO@=@@@@",
"@@@@=X@=@+@#%%==%%&&#@@O@@@@=@@@",
"@@@@=X@@@+#%%%%%%%%&&#O@@@@@=@@@",
"@@@@=X@@+#%%%$$$%%$$$&#@@@@@=@@@",
"@@@@=X@+@#%%%%$%%%%$&&#@@@@@=@@@",
"@@@@=@+@@#%%%%$%%%&$&&#@@@@@=@@@",
"@@@@=@+@.#%$%%$%$&&$&&#@@@oo=@@@",
"@@@@=+@.@@#%$$%%&$$&&#@@oo@@=@@@",
"@@@@=..@@@@*%%%%&&&&#@oo@@++=@@@",
"@@@@@=@@@@*@#%%%&&&#@o@@@+@=@@@@",
"@@@@@@=@**@@O######@o@@++@=@@@@@",
"@@@@@@=@@@@@O@@@=@@o@@+=@@=@@@@@",
"@@@@@@@=@@@O@@@=@@o@++=@@=@@@@@@",
"@@@@@@@@==O@@@@@@o@+@@@==@@@@@@@",
"@@@@@@@@@==@@@ooo@+@@@==@@@@@@@@",
"@@@@@@@@@@@==o@@@+@@==@@@@@@@@@@",
"@@@@@@@@@@@@@=======@@@@@@@@@@@@",
"@@@@@@@@@@@@@@@@@@@@@@@@@@@@@@@@",
"@@@@@@                      @@@@",
"@@@@@@                      @@@@",
"@@@@@@@@                  @@@@@@"
};
