/* XPM */
static char *J_F_G11712524698[] = {
/* columns rows colors chars-per-pixel */
"32 32 14 1 ",
"  c #321300",
". c #391803",
"X c #332F2F",
"o c #333232",
"O c #3C3C3C",
"+ c #401B04",
"@ c #592E13",
"# c #732E02",
"$ c #663110",
"% c #594B4B",
"& c gray32",
"* c #CED90B",
"= c #DAE604",
"- c #E7F215",
/* pixels */
"ooOO&&o&OoO&OOoO&OoO&OOooOOO&OOo",
"oOOOO&&OOOO&OOOOOOO&OOooOO&OOOOO",
"&&&&OOOOoOO&OOOooOO&OO&OO&OOOO&O",
"OOOO&OOoOOOO&OoOOO&OOOOO&OO%O&&&",
"OOoOO&OOOOOO&OOOO&OOOO&&OOOO&&oo",
"OoO%OO&OOOO..........&OOOOoOO&&o",
"OOOOOOO&...+$$ $+$$$+...OOoOOOOO",
"OOO&OOO.$$$+$ $$+$$$+$$$.OOOXOOO",
"O&oOOo.$$ $+$$$$+$ $+$ $$.&OX&&&",
"&OOOoO.$$ $+$$#$+$$$+$ $$.OXOOOo",
"OOoOOO.$ $$+$#$$+$$$+$$$$.OOOOoo",
"OoOOOO.$$$$+$$@$+$#$+$#$$.OOOOoo",
"OOO&&&.$$$$+$@$$+#$$+$#$$.O&O&Oo",
"&&&OOO.$$#$+$$$$+#$$+$#$$.OOOOOO",
"OOOOOO.$$$$+$#$$+$$$+$$@$.OOOOOO",
"oOOOO&.$@@$+$#$$+$$$+$$$$.OO&&&&",
"O&OO&&.$@$$+$$$$+$$$+$$$$.&&%OOO",
"OOoO&o.$$$$+$$$$+$$ +$==$.OOOOOO",
"OOOoO&.$$ $+$$$$+$ $+=*-=.OOoO&O",
"&OOOOO.$ $$+$$ $+$$$+=**=.OOoOOO",
"O&&OOO.$$$$+$$ $+$$$+$==$.OOOOOO",
"OOO&OO.$$$$+$ $$+$$$+$$$$.OOO&&&",
"OoOO&&.$#$$+$$#$+$$$+$$$$.OO&OoO",
"OoOOOO.$#$$+$$#$+$$$+$$#$.&%OOoO",
"Oo&O%O.#$@$+$$$$+$ $+$$#$.OOOOOO",
"OOOOOO.$@$$+$$  +$ $+$$#$.OO&O&O",
"OO&&&&.$$$$+$ $$+$ $+$$$$.O&OOOO",
"O&OOOO.$$ $+$$$$+$$$+$$$$.OOOOoO",
"&OO%OO.$ $$+$$@@+$ $+$$ $.OO&OoO",
"OOOooO.$$ $+$$$$+$@$+$$$$.&OoOO&",
"oOoOOO.$$ $+$$$$+$@$+$$$@.OoOO&o",
"oOOOOO.$$ $+$$$$+$$$+$$$$.O%o&oo"
};
