/* XPM */
static char *J_F_G311712524696[] = {
/* columns rows colors chars-per-pixel */
"32 32 5 1 ",
"  c #333232",
". c gray32",
"X c #6C6C6C",
"o c #A0A0A0",
"O c #B3AFAF",
/* pixels */
".              ..              .",
" XXXXXXXXXXXXXXo XXXXXXXXXXXXXXo",
" XXXXXXXXXXXXXXo XXXXXXXXXXXXXXo",
" XXXXXXXXXXXXXXo XXXXXXXXXXXXXXo",
" XXXXXXXXXXXXXXo XXXXXXXXXXXXXXo",
" XXXXXXXXXXXXXXo XXXXXXXXXXXXXXo",
" XXXXXXXXXXXXXXo XXXXXXXXXXXXXXo",
" XXXXXXXXXXXXXXo XXXXXXXXXXXXXXo",
" XXXXXXXXXXXXXXo XXXXXXXXXXXXXXo",
" XXXXXXXXXXXXXXo XXXXXXXXXXXXXXo",
" XXXXXXXXXXXXXXo XXXXXXXXXXXXXXo",
" XXXXXXXXXXXXXXo XXXXXXXXXXXXXXo",
" XXXXXXXXXXXXXXo XXXXXXXXXXXXXXo",
" XXXXXXXXXXXXXXo XXXXXXXXXXXXXXo",
" XXXXXXXXXXXXXXo XXXXXXXXXXXXXXo",
".ooooooooooooooO.ooooooooooooooO",
".              ..              .",
" XXXXXXXXXXXXXXo XXXXXXXXXXXXXXo",
" XXXXXXXXXXXXXXo XXXXXXXXXXXXXXo",
" XXXXXXXXXXXXXXo XXXXXXXXXXXXXXo",
" XXXXXXXXXXXXXXo XXXXXXXXXXXXXXo",
" XXXXXXXXXXXXXXo XXXXXXXXXXXXXXo",
" XXXXXXXXXXXXXXo XXXXXXXXXXXXXXo",
" XXXXXXXXXXXXXXo XXXXXXXXXXXXXXo",
" XXXXXXXXXXXXXXo XXXXXXXXXXXXXXo",
" XXXXXXXXXXXXXXo XXXXXXXXXXXXXXo",
" XXXXXXXXXXXXXXo XXXXXXXXXXXXXXo",
" XXXXXXXXXXXXXXo XXXXXXXXXXXXXXo",
" XXXXXXXXXXXXXXo XXXXXXXXXXXXXXo",
" XXXXXXXXXXXXXXo XXXXXXXXXXXXXXo",
" XXXXXXXXXXXXXXo XXXXXXXXXXXXXXo",
"OooooooooooooooO.ooooooooooooooO"
};
