/* XPM */
static char *J_F_G71712524700[] = {
/* columns rows colors chars-per-pixel */
"32 32 7 1 ",
"  c None",
". c black",
"X c #2A3134",
"o c #D90B0B",
"O c #CED90B",
"+ c #DAE604",
"@ c #E7F215",
/* pixels */
"                                ",
"                                ",
"                                ",
"                                ",
"                                ",
"                                ",
"            ........            ",
"           .++OOOO@@.           ",
"           .++OOOO@@.           ",
"          ..++OOOO@@.           ",
"         .OOOO.oOO.o.           ",
"         .OOOO.oOO.o.           ",
"          ..++OOOO@@.           ",
"           .++OOOO@@.           ",
"           .++OO@@.             ",
"          ..++OO@@..            ",
"         .++++OO@@OO.           ",
"         .++++OO@@OO.           ",
"          ..++OO@@..            ",
"           .@@..OO.             ",
"           .@@..OO.             ",
"         XX.@@..OO.XX           ",
"          XX..XX..XX            ",
"                                ",
"                                ",
"                                ",
"                                ",
"                                ",
"                                ",
"                                ",
"                                ",
"                                "
};
