/* XPM */
static char * player_xpm[] = {
"32 32 11 1",
" 	c #525252",
".	c #333232",
"+	c #6C6C6C",
"@	c #A0A0A0",
"#	c #000000",
"$	c #DAE604",
"%	c #CED90B",
"&	c #E7F215",
"*	c #D90B0B",
"=	c #B3AFAF",
"-	c #2A3134",
" ..............  .............. ",
".++++++++++++++@.++++++++++++++@",
".++++++++++++++@.++++++++++++++@",
".++++++++++++++@.++++++++++++++@",
".++++++++++++++@.++++++++++++++@",
".++++++++++++++@.++++++++++++++@",
".+++++++++++########+++++++++++@",
".++++++++++#$$%%%%&&#++++++++++@",
".++++++++++#$$%%%%&&#++++++++++@",
".+++++++++##$$%%%%&&#++++++++++@",
".++++++++#%%%%#*%%#*#++++++++++@",
".++++++++#%%%%#*%%#*#++++++++++@",
".+++++++++##$$%%%%&&#++++++++++@",
".++++++++++#$$%%%%&&#++++++++++@",
".++++++++++#$$%%&&#++++++++++++@",
" @@@@@@@@@##$$%%&&##@@@@@@@@@@@=",
" ........#$$$$%%&&%%#.......... ",
".++++++++#$$$$%%&&%%#++++++++++@",
".+++++++++##$$%%&&##+++++++++++@",
".++++++++++#&&##%%#++++++++++++@",
".++++++++++#&&##%%#++++++++++++@",
".++++++++--#&&##%%#--++++++++++@",
".+++++++++--##--##--+++++++++++@",
".++++++++++++++@.++++++++++++++@",
".++++++++++++++@.++++++++++++++@",
".++++++++++++++@.++++++++++++++@",
".++++++++++++++@.++++++++++++++@",
".++++++++++++++@.++++++++++++++@",
".++++++++++++++@.++++++++++++++@",
".++++++++++++++@.++++++++++++++@",
".++++++++++++++@.++++++++++++++@",
"=@@@@@@@@@@@@@@= @@@@@@@@@@@@@@="};
