/* XPM */
static char *J_F_G221712524694[] = {
/* columns rows colors chars-per-pixel */
"32 32 8 1 ",
"  c black",
". c #0B0B0B",
"X c #1B1B1B",
"o c gray19",
"O c #403F3F",
"+ c gray33",
"@ c #606060",
"# c #808080",
/* pixels */
".oO++++@@@.ooO++++@@@.oOO++++@@.",
".O++++@@@@.OO++++@@@@.O++++@@@@.",
".O++++@@@@.OO++++@@@@.O++++@@@@.",
".++++@@@@#.++++@@@@##.++++@@@@#.",
".++++@@@@#.++++@@@@##.++++@@@@#.",
".++++@@@@#.++++@@@@##.++++@@@@#.",
".oOOOOOOO+.ooOOOOOO++.oOOOOOOO+.",
".oOOOOOOO+.ooOOOOOO++.oOOOOOOO+.",
"................................",
"................................",
"@.OOO+.+++@..OO++.+++@.OOO+..++@",
"@.OOO+.+++@..OO++.+++@.OOO+..++@",
"................................",
"................................",
"ooO..OO++.oooO.OOO+..ooOO.OOO+.o",
"ooO..OO++.oooO.OOO+..ooOO.OOO+.o",
"................................",
"................................",
"................................",
"@.OOO+.+++@..ooOO.+++@.OOO+..++@",
"@.OOO+.+++@..ooOO.+++@.OOO+..++@",
"................................",
"................................",
" oO..++@@.oooO.+++@..ooOO.+++@.o",
" oO..++@@.oooO.+++@..ooOO.+++@.o",
"X...............................",
"X...............................",
"X.OOO+.+++@..OO++.+++@.OOO+..++@",
"X.OOO+.+++@..OO++.+++@.OOO+..++@",
".X..............................",
".X..............................",
"XXXXXXXX++++++OOOOOOO.ooooo.@@@@"
};
